# xmcd
#
# Track frame offsets:
#	150
#	18793
#	38217
#	57691
#	80201
#	98717
#	115168
#	135584
#	152937
#	167310
#	189089
#	212358
#	230335
#	250770
#	271279
#	293054
#
# Disc length: 4144 seconds
#
# Revision: 1
# Processed by: cddbd v1.5.2PL0 Copyright (c) Steve Scherf et al.
# Submitted via: EasyCDDAExtractor 15.3.0.1
#
DISCID=cf102e10
DTITLE=Emmanuel - Acustico En Vivo (Edicion Especial)
DYEAR=2012
DGENRE=Latin
TTITLE0=El Rey Azul
TTITLE1=Tu Y Yo
TTITLE2=Insoportablemente Bella
TTITLE3=El Dia Que Puedas
TTITLE4=Si Ese Tiempo Pudiera Volver
TTITLE5=En Otra Vida (Featuring Gianmarco)
TTITLE6=Este Terco Corazon
TTITLE7=Bella Señora
TTITLE8=Con Olor A Hierba
TTITLE9=Al Final (Featuring Antonio Orozco)
TTITLE10=Toda La Vida
TTITLE11=No He Podido Verte (Chino Y Nacho)
TTITLE12=Pobre Diablo (Luis Fonsi)
TTITLE13=Luces De Bohemia Para Elisa (Paty Cantu)
TTITLE14=Insoportablemente Bella (Axel)
TTITLE15=Tu Y Yo (Motel)
EXTD=
EXTT0=
EXTT1=
EXTT2=
EXTT3=
EXTT4=
EXTT5=
EXTT6=
EXTT7=
EXTT8=
EXTT9=
EXTT10=
EXTT11=
EXTT12=
EXTT13=
EXTT14=
EXTT15=
PLAYORDER=
